<svg width="40" height="16" viewBox="0 0 40 16" fill="none" xmlns="http://www.w3.org/2000/svg">
<!-- lowercase "aiv" in a clean geometric sans style -->
<path d="M4.5 12.5C2.2 12.5 0.5 11.2 0.5 8.8C0.5 6.4 2.2 5 4.5 5C5.8 5 6.8 5.5 7.4 6.2V5.2H9.8V12.3H7.4V11.3C6.8 12 5.8 12.5 4.5 12.5ZM5 10.5C6.4 10.5 7.4 9.8 7.4 8.8C7.4 7.7 6.4 7 5 7C3.7 7 2.8 7.7 2.8 8.8C2.8 9.8 3.7 10.5 5 10.5Z" fill="white" fill-opacity="0.65"/>
<path d="M13.5 3.5V12.3H11.1V3.5H13.5Z" fill="white" fill-opacity="0.65"/>
<path d="M22.8 5.2L19.8 12.3H17.2L14.2 5.2H16.8L18.5 10L20.2 5.2H22.8Z" fill="white" fill-opacity="0.65"/>
</svg>
